<svg viewBox="0 0 24 24" xmlns="http://www.w3.org/2000/svg"><path fill-rule="evenodd" clip-rule="evenodd" d="M19.4572 3.4043C20.4001 2.86524 21.5714 3.31167 21.8235 4.36661L22.9697 9.03896C23.2217 10.0939 22.4796 11.1027 21.4035 11.2279L20.017 11.3949L19.4572 3.4043ZM10.0004 5C10.5527 5 11.0004 5.44772 11.0004 6V8H17.4433L18.0031 16H11.0004V18C11.0004 18.5523 10.5527 19 10.0004 19C9.44812 19 9.00041 18.5523 9.00041 18V16H2.00041C1.44812 16 1.00041 15.5523 1.00041 15V7C1.00041 6.44772 1.44812 6 2.00041 6H9.00041V4C9.00041 3.44772 9.44812 3 10.0004 3C10.5527 3 11.0004 3.44772 11.0004 4V6C11.0004 5.44772 10.5527 5 10.0004 5ZM9.00041 8H3.00041V14H9.00041V8Z" /><path d="M5.5 17C5.5 16.4477 5.94772 16 6.5 16H8.5C9.05228 16 9.5 16.4477 9.5 17V20.5C9.5 21.3284 8.82843 22 8 22C7.17157 22 6.5 21.3284 6.5 20.5V18H5.5C4.94772 18 4.5 17.5523 4.5 17Z" /></svg>