<svg viewBox="0 0 24 24" xmlns="http://www.w3.org/2000/svg"><path d="M5.5 7.5C4.67157 7.5 4 6.82843 4 6C4 5.17157 4.67157 4.5 5.5 4.5C6.32843 4.5 7 5.17157 7 6C7 6.82843 6.32843 7.5 5.5 7.5Z" /><path fill-rule="evenodd" clip-rule="evenodd" d="M9.87868 2.87868C10.4413 2.31607 11.2044 2 12 2H18C19.6569 2 21 3.34315 21 5V11C21 11.7956 20.6839 12.5587 20.1213 13.1213L13.1213 20.1213C11.9497 21.2929 10.0503 21.2929 8.87868 20.1213L3.87868 15.1213C2.70711 13.9497 2.70711 12.0503 3.87868 10.8787L9.87868 2.87868ZM12 4C11.7348 4 11.4804 4.10536 11.2929 4.29289L5.29289 12.2929C4.90237 12.6834 4.90237 13.3166 5.29289 13.7071L10.2929 18.7071C10.6834 19.0976 11.3166 19.0976 11.7071 18.7071L18.7071 11.7071C18.8946 11.5196 19 11.2652 19 11V5C19 4.44772 18.5523 4 18 4H12Z" /></svg>