<svg viewBox="0 0 24 24" xmlns="http://www.w3.org/2000/svg"><path d="M18 17H20V19H18V17Z" /><path fill-rule="evenodd" clip-rule="evenodd" d="M3 7C3 5.34315 4.34315 4 6 4H20C20.5523 4 21 4.44772 21 5C21 5.55228 20.5523 6 20 6H6C5.44772 6 5 6.44772 5 7V18C5 18.5523 5.44772 19 6 19H20C20.5523 19 21 18.4477 21 18V9C21 8.44772 20.5523 8 20 8H6C5.44772 8 5 7.55228 5 7V18C5 19.6569 6.34315 21 8 21H20C21.6569 21 23 19.6569 23 18V9C23 7.34315 21.6569 6 20 6V5C20 3.34315 18.6569 2 17 2H6C3.23858 2 1 4.23858 1 7V18C1 20.7614 3.23858 23 6 23H20C22.7614 23 25 20.7614 25 18V9C25 6.23858 22.7614 4 20 4V5C21.6569 5 23 6.34315 23 8V18C23 19.6569 21.6569 21 20 21H6C4.34315 21 3 19.6569 3 18V7ZM17 14C16.4477 14 16 14.4477 16 15V17C16 17.5523 16.4477 18 17 18H21C21.5523 18 22 17.5523 22 17V15C22 14.4477 21.5523 14 21 14H17Z" /></svg>